<svg width="480" height="480" viewBox="0 0 480 480" fill="none" xmlns="http://www.w3.org/2000/svg">
<rect width="480" height="480" rx="160" fill="#7C3AED"/>
<path d="M372.831 8.92969C435.237 30.752 480 90.1477 480 160V320C480 408.366 408.366 480 320 480H160C141.128 480 123.021 476.73 106.21 470.73L372.831 8.92969Z" fill="#6D28D9"/>
<path d="M240 375V345" stroke="white" stroke-width="24" stroke-linecap="round" stroke-linejoin="round"/>
<path d="M330 165H150C133.431 165 120 178.431 120 195V315C120 331.569 133.431 345 150 345H330C346.569 345 360 331.569 360 315V195C360 178.431 346.569 165 330 165Z" stroke="white" stroke-width="24" stroke-linecap="round" stroke-linejoin="round"/>
<path d="M285 240V270" stroke="white" stroke-width="24" stroke-linecap="round" stroke-linejoin="round"/>
<path d="M195 240V270" stroke="white" stroke-width="24" stroke-linecap="round" stroke-linejoin="round"/>
<path d="M360 255H390" stroke="white" stroke-width="24" stroke-linecap="round" stroke-linejoin="round"/>
<path d="M90 255H120" stroke="white" stroke-width="24" stroke-linecap="round" stroke-linejoin="round"/>
<path d="M240 165V105H180" stroke="white" stroke-width="24" stroke-linecap="round" stroke-linejoin="round"/>
</svg>
