<svg width="480" height="480" viewBox="0 0 480 480" fill="none" xmlns="http://www.w3.org/2000/svg">
<rect width="480" height="480" rx="160" fill="#2563EB"/>
<path d="M372.831 8.92969C435.237 30.752 480 90.1477 480 160V320C480 408.366 408.366 480 320 480H160C141.128 480 123.021 476.73 106.21 470.73L372.831 8.92969Z" fill="#1d4ED8"/>
<path d="M105 225V345C105 352.956 108.161 360.587 113.787 366.213C119.413 371.839 127.044 375 135 375H345C352.956 375 360.587 371.839 366.213 366.213C371.839 360.587 375 352.956 375 345V225" stroke="white" stroke-width="24" stroke-linecap="round" stroke-linejoin="round"/>
<path d="M285 255V285" stroke="white" stroke-width="24" stroke-linecap="round" stroke-linejoin="round"/>
<path d="M195 255V285" stroke="white" stroke-width="24" stroke-linecap="round" stroke-linejoin="round"/>
<path d="M363 150L105 225L91.5 189C87 172.5 96 156 111 151.5L313.5 91.5C330 87 346.5 96 351 111L363 150Z" stroke="white" stroke-width="24" stroke-linecap="round" stroke-linejoin="round"/>
<path d="M153 139.5L199.5 198" stroke="white" stroke-width="24" stroke-linecap="round" stroke-linejoin="round"/>
<path d="M246 111L292.5 171" stroke="white" stroke-width="24" stroke-linecap="round" stroke-linejoin="round"/>
</svg>
